<svg width="178" height="54" viewBox="0 0 178 54" fill="none" xmlns="http://www.w3.org/2000/svg">
<path d="M65.28 41.24L62.36 32.6H54.44L51.36 41.24H54.36V42H48.24V41.24H50.12L60.32 13.76H63.6L73.68 41.24H75.52V42H62.44V41.24H65.28ZM58.56 21.24L54.8 31.72H62.04L58.56 21.24ZM87.2394 27.16L92.9194 14.64H88.8794V14H96.7594V14.64H94.1194L88.0794 28V41.24H90.5194V42H77.8394V41.24H80.2794V28.76L73.4794 14.64H71.5994V14H84.3994V14.64H81.7994L87.2394 27.16ZM107.824 33.48C107.824 35.9333 108.238 37.8133 109.064 39.12C109.918 40.4267 111.438 41.08 113.624 41.08C115.811 41.08 117.491 40.4 118.664 39.04C119.838 37.68 120.424 35.6133 120.424 32.84V14.76H117.824V14H123.664V14.76H121.464V32.56C121.464 35.8667 120.731 38.3333 119.264 39.96C117.798 41.5867 115.198 42.4 111.464 42.4C107.758 42.4 104.918 41.6267 102.944 40.08C100.998 38.5333 100.024 35.88 100.024 32.12V14.76H97.8244V14H110.424V14.76H107.824V33.48ZM136.898 41.56C138.232 41.56 139.405 41.2 140.418 40.48C141.458 39.76 141.978 38.68 141.978 37.24C141.978 35.7733 141.418 34.6533 140.298 33.88C139.205 33.1067 137.632 32.44 135.578 31.88C133.552 31.2933 132.072 30.7867 131.138 30.36C130.232 29.9333 129.365 29.3733 128.538 28.68C126.885 27.2933 126.058 25.1467 126.058 22.24C126.058 19.8667 126.898 17.8267 128.578 16.12C130.285 14.4133 132.605 13.56 135.538 13.56C136.952 13.56 138.418 13.7733 139.938 14.2C141.485 14.6 142.445 14.8 142.818 14.8C143.192 14.8 143.525 14.5333 143.818 14H144.258L144.538 22.08H143.898C142.618 19.76 141.272 17.9067 139.858 16.52C138.472 15.1067 136.952 14.4 135.298 14.4C133.672 14.4 132.405 14.7867 131.498 15.56C130.592 16.3067 130.138 17.32 130.138 18.6C130.138 19.8533 130.672 20.8267 131.738 21.52C132.832 22.1867 134.165 22.7333 135.738 23.16C137.312 23.5867 138.338 23.88 138.818 24.04C139.325 24.2 139.938 24.4267 140.658 24.72C141.405 24.9867 142.005 25.28 142.458 25.6C142.938 25.8933 143.432 26.28 143.938 26.76C144.472 27.2133 144.885 27.72 145.178 28.28C145.898 29.56 146.258 31.08 146.258 32.84C146.258 35.72 145.352 38.04 143.538 39.8C141.752 41.5333 139.392 42.4 136.458 42.4C134.938 42.4 133.192 42.2 131.218 41.8C129.272 41.4 128.192 41.2 127.978 41.2C127.605 41.2 127.245 41.6 126.898 42.4H126.338L125.938 32.88H126.618C127.792 35.2 129.285 37.2267 131.098 38.96C132.938 40.6933 134.872 41.56 136.898 41.56ZM148.723 14H161.203V14.76H158.883V27.16H166.843V14.76H164.483V14H177.003V14.76H174.643V41.24H177.003V42H164.483V41.24H166.843V28.2H158.883V41.24H161.203V42H148.723V41.24H151.083V14.76H148.723V14Z" fill="black"/>
<g clip-path="url(#clip0_6_5)">
<mask id="mask0_6_5" style="mask-type:luminance" maskUnits="userSpaceOnUse" x="0" y="8" width="232" height="37">
<path d="M231.893 8H0V45H231.893V8Z" fill="white"/>
</mask>
<g mask="url(#mask0_6_5)">
<path d="M21.715 33.9462C21.715 34.1497 21.8977 34.3163 22.1181 34.3163H32.0619C32.2823 34.3163 32.465 34.1497 32.465 33.9462V31.7262C32.465 31.5227 32.2823 31.3562 32.0619 31.3562H22.1181C21.8977 31.3562 21.715 31.5227 21.715 31.7262V33.9462ZM11.2391 34.2284L21.5591 26.7821C21.7634 26.6341 21.7634 26.3612 21.5591 26.2132L11.2391 18.7716C11.1768 18.726 11.1006 18.6968 11.0196 18.6874C10.9386 18.6779 10.8561 18.6887 10.7819 18.7184C10.7078 18.7481 10.6451 18.7955 10.6013 18.8549C10.5576 18.9144 10.5346 18.9834 10.535 19.0537V21.9536C10.535 22.0646 10.5888 22.1664 10.6909 22.2357L16.5926 26.5L10.6909 30.7642C10.6428 30.7989 10.604 30.842 10.5771 30.8907C10.5502 30.9393 10.5359 30.9925 10.535 31.0464V33.9462C10.535 34.2607 10.9596 34.4319 11.2391 34.2284ZM41.28 8H1.72C0.768625 8 0 8.66138 0 9.48V43.52C0 44.3386 0.768625 45 1.72 45H41.28C42.2314 45 43 44.3386 43 43.52V9.48C43 8.66138 42.2314 8 41.28 8ZM39.13 41.67H3.87V11.33H39.13V41.67Z" fill="#FF651C"/>
</g>
</g>
<defs>
<clipPath id="clip0_6_5">
<rect width="43" height="37" fill="white" transform="translate(0 8)"/>
</clipPath>
</defs>
</svg>
